<?xml version="1.0" standalone="no"?>
<!DOCTYPE svg PUBLIC "-//W3C//DTD SVG 20010904//EN"
 "http://www.w3.org/TR/2001/REC-SVG-20010904/DTD/svg10.dtd">
<svg version="1.0" xmlns="http://www.w3.org/2000/svg"
 width="348.000000pt" height="311.000000pt" viewBox="0 0 348.000000 311.000000"
 preserveAspectRatio="xMidYMid meet">

<g transform="translate(0.000000,311.000000) scale(0.100000,-0.100000)"
fill="#000000" stroke="none">
<path d="M1520 3011 c-90 -8 -189 -29 -273 -57 -93 -31 -182 -66 -191 -75 -6
-5 -18 -9 -28 -9 -10 0 -18 -4 -18 -9 0 -5 -15 -15 -32 -22 -18 -7 -54 -28
-80 -46 -26 -18 -50 -33 -54 -33 -3 0 -11 -6 -19 -12 -7 -7 -25 -22 -41 -33
-15 -11 -36 -28 -46 -37 -10 -10 -20 -18 -23 -18 -5 0 -135 -130 -135 -135 0
-2 -12 -17 -26 -32 -15 -15 -43 -52 -63 -82 -20 -30 -44 -66 -53 -80 -50 -74
-138 -287 -138 -333 0 -13 -4 -28 -9 -33 -41 -47 -41 -513 0 -559 5 -6 9 -21
9 -34 0 -46 78 -237 132 -323 52 -82 97 -146 122 -172 14 -15 26 -30 26 -33 0
-10 129 -129 210 -194 14 -11 30 -24 37 -30 7 -5 15 -10 18 -10 3 0 27 -15 53
-33 26 -18 62 -39 80 -46 17 -7 32 -17 32 -22 0 -5 6 -9 14 -9 8 0 27 -6 43
-14 29 -15 102 -44 163 -66 148 -53 382 -77 591 -62 73 5 154 15 179 21 25 6
69 16 98 23 29 6 55 15 58 20 3 4 18 8 35 8 16 0 29 5 29 10 0 6 7 10 15 10
18 0 89 32 93 43 2 4 10 7 17 7 7 0 41 16 75 35 34 19 66 35 71 35 5 0 9 4 9
9 0 5 9 13 20 16 49 16 231 177 306 272 21 26 43 53 49 58 10 9 37 49 60 87
46 76 65 113 65 124 0 8 4 14 8 14 4 0 16 24 26 53 11 28 23 56 27 61 5 6 9
20 9 31 0 12 7 35 15 51 23 46 50 229 50 339 0 110 -27 293 -50 339 -8 16 -15
36 -15 45 0 20 -52 145 -62 149 -5 2 -8 9 -8 17 0 11 -25 58 -63 119 -17 28
-24 37 -52 72 -14 18 -25 35 -25 38 0 3 -8 14 -17 25 -144 152 -209 213 -292
266 -25 16 -47 33 -49 37 -2 5 -7 8 -12 8 -4 0 -36 16 -70 35 -34 19 -68 35
-76 35 -8 0 -14 3 -14 8 0 8 -43 28 -82 38 -16 3 -28 10 -28 15 0 5 -13 9 -29
9 -17 0 -32 4 -35 8 -3 5 -31 14 -63 21 -32 7 -83 19 -114 27 -68 16 -343 25
-459 15z m451 -161 c141 -33 311 -90 334 -111 5 -5 15 -9 22 -9 11 0 72 -36
100 -60 7 -5 19 -10 28 -10 8 0 15 -4 15 -8 0 -4 25 -25 55 -47 30 -22 55 -43
55 -47 0 -5 4 -8 10 -8 14 0 130 -122 130 -137 0 -7 7 -13 15 -13 8 0 15 -6
15 -13 0 -8 9 -22 20 -32 11 -10 20 -24 20 -32 0 -7 4 -13 9 -13 11 0 61 -87
61 -106 0 -8 3 -14 8 -14 4 0 13 -15 21 -32 7 -18 20 -46 27 -62 8 -16 14 -39
14 -51 0 -11 4 -25 9 -30 14 -16 29 -94 42 -214 9 -87 9 -140 0 -230 -12 -121
-28 -199 -42 -215 -5 -6 -9 -20 -9 -32 0 -12 -7 -35 -15 -51 -8 -15 -20 -43
-27 -60 -7 -18 -16 -33 -20 -33 -5 0 -8 -7 -8 -15 0 -17 -48 -98 -61 -103 -5
-2 -9 -9 -9 -16 0 -7 -9 -21 -20 -31 -11 -10 -20 -22 -20 -27 0 -4 -8 -16 -17
-26 -10 -10 -44 -46 -76 -80 -31 -34 -59 -62 -62 -62 -2 0 -16 -11 -31 -25
-23 -22 -46 -37 -134 -95 -8 -5 -32 -21 -53 -35 -21 -14 -42 -25 -47 -25 -4 0
-21 -7 -37 -15 -80 -41 -179 -75 -293 -102 -56 -12 -131 -18 -291 -20 -194 -3
-224 -2 -290 17 -41 11 -83 20 -94 20 -11 0 -33 7 -49 15 -15 8 -37 15 -47 15
-11 0 -27 4 -37 9 -9 5 -62 31 -117 58 -55 26 -109 56 -119 65 -11 10 -28 20
-38 24 -10 3 -18 10 -18 15 0 5 -7 9 -15 9 -7 0 -18 6 -22 13 -4 7 -26 26 -48
42 -23 15 -52 43 -65 61 -14 19 -29 34 -35 34 -5 0 -21 16 -35 36 -14 19 -35
47 -48 62 -12 15 -26 32 -31 38 -21 26 -91 157 -91 170 0 8 -4 14 -8 14 -5 0
-14 19 -21 43 -7 23 -19 56 -26 72 -7 17 -16 44 -19 60 -3 17 -12 64 -20 105
-27 134 -19 304 22 475 14 58 51 158 62 169 6 6 10 15 10 22 0 7 18 45 41 85
44 77 45 79 84 123 14 16 25 32 25 35 0 10 120 130 159 159 20 15 40 33 44 39
4 7 15 13 22 13 8 0 15 4 15 8 0 4 15 16 33 27 17 10 34 21 37 24 3 3 41 23
85 44 44 22 97 47 118 58 22 10 49 19 61 19 12 0 26 4 31 9 6 6 55 19 109 30
55 12 102 23 104 26 3 3 96 5 207 5 167 0 217 -3 286 -20z"/>
<path d="M1635 2504 c-120 -25 -203 -71 -285 -155 -31 -32 -68 -80 -81 -106
-13 -26 -27 -50 -30 -53 -13 -11 -48 -148 -54 -212 l-6 -66 -49 -12 c-54 -13
-105 -55 -138 -113 -22 -38 -22 -45 -22 -483 l0 -444 725 0 725 0 0 429 c0
457 -2 477 -50 538 -30 38 -79 69 -122 77 -36 7 -36 7 -40 64 -5 64 -52 229
-72 252 -8 8 -21 29 -29 45 -20 38 -109 135 -125 135 -7 0 -12 5 -12 11 0 5
-15 17 -32 25 -18 9 -45 22 -60 30 -54 29 -185 50 -243 38z m219 -200 c25 -14
46 -30 46 -35 0 -5 5 -9 11 -9 14 0 59 -47 59 -61 0 -5 4 -9 10 -9 21 0 86
-157 96 -232 l7 -48 -383 0 -383 0 6 65 c6 63 39 157 64 183 7 7 13 17 13 22
0 8 63 74 96 100 26 21 93 48 129 54 17 2 64 2 107 0 58 -3 87 -10 122 -30z
m-96 -678 c60 -33 80 -122 42 -184 -11 -18 -20 -42 -20 -53 0 -11 18 -84 41
-161 22 -77 39 -152 37 -167 l-3 -26 -160 0 -160 0 -3 25 c-1 14 15 89 38 168
39 139 48 192 32 192 -16 0 -42 59 -42 95 0 44 23 86 59 108 31 20 107 21 139
3z"/>
</g>
</svg>
